<?xml version="1.0" standalone="no"?><!DOCTYPE svg PUBLIC "-//W3C//DTD SVG 1.1//EN" "http://www.w3.org/Graphics/SVG/1.1/DTD/svg11.dtd"><svg t="1690961804568" class="icon" viewBox="0 0 1024 1024" version="1.1" xmlns="http://www.w3.org/2000/svg" p-id="9479" xmlns:xlink="http://www.w3.org/1999/xlink" width="200" height="200"><path d="M1004.8 123.733333c19.2 12.8 23.466667 40.533333 10.666667 59.733334-12.8 19.2-40.533333 23.466667-59.733334 10.666666-6.4-4.266667-53.333333-32-119.466666 14.933334l72.533333 72.533333c17.066667 17.066667 17.066667 42.666667 0 59.733333l-93.866667 93.866667c42.666667 140.8 4.266667 296.533333-102.4 403.2C633.6 919.466667 531.2 960 426.666667 960s-206.933333-40.533333-285.866667-119.466667C-19.2 682.666667-19.2 426.666667 140.8 268.8c106.666667-106.666667 262.4-145.066667 403.2-102.4l93.866667-93.866667c17.066667-17.066667 42.666667-17.066667 59.733333 0L776.533333 149.333333c98.133333-76.8 189.866667-51.2 228.266667-25.6zM765.866667 366.933333l53.333333-53.333333-151.466667-151.466667-53.333333 53.333334 151.466667 151.466666z m-113.066667 413.866667c87.466667-87.466667 115.2-215.466667 76.8-330.666667L533.333333 253.866667c-117.333333-40.533333-245.333333-12.8-332.8 74.666666-123.733333 123.733333-123.733333 328.533333 0 452.266667s326.4 125.866667 452.266667 0z" fill="#2F3CF4" p-id="9480"></path><path d="M426.666667 298.666667c-140.8 0-256 115.2-256 256 0 23.466667 19.2 42.666667 42.666666 42.666666s42.666667-19.2 42.666667-42.666666c0-93.866667 76.8-170.666667 170.666667-170.666667 23.466667 0 42.666667-19.2 42.666666-42.666667s-19.2-42.666667-42.666666-42.666666" fill="#2F3CF4" p-id="9481"></path></svg>