<?xml version="1.0" standalone="no"?><!DOCTYPE svg PUBLIC "-//W3C//DTD SVG 1.1//EN" "http://www.w3.org/Graphics/SVG/1.1/DTD/svg11.dtd"><svg t="1690961808698" class="icon" viewBox="0 0 1024 1024" version="1.1" xmlns="http://www.w3.org/2000/svg" p-id="9798" xmlns:xlink="http://www.w3.org/1999/xlink" width="200" height="200"><path d="M731.016 43.54a9.86 9.86 0 0 1 16.236 5.524l11.508 60.416a9.844 9.844 0 0 0 7.748 7.82l57.244 11.452a9.856 9.856 0 0 1 5.64 15.976l-45.72 54.868a9.852 9.852 0 0 0-1.66 9.772l16.228 43.272a9.856 9.856 0 0 1-10.504 13.24l-72.288-9.432a9.888 9.888 0 0 0-6.416 1.364l-56.836 34.736a9.856 9.856 0 0 1-14.828-6.596l-8.3-44.252a9.864 9.864 0 0 0-6.572-7.536l-62.084-20.692a9.86 9.86 0 0 1-3.34-16.804l41.568-36.024a9.856 9.856 0 0 0 2.66-11.204l-19.156-46.524a9.86 9.86 0 0 1 9.932-13.576l75.712 6.308a9.856 9.856 0 0 0 7.368-2.456l55.86-49.652z" fill="#FFBE52" p-id="9799"></path><path d="M726.212 341.124a25.008 25.008 0 0 1-35.336 1.088 25.008 25.008 0 0 1-1.088-35.336s13.86-15.748 14.908-42.496c0.804-20.628-6.08-46.772-28.8-77.524a25 25 0 0 1 40.208-29.712c31.82 43.056 39.684 80.308 38.552 109.192-1.86 47.524-28.444 74.788-28.444 74.788z" fill="#F45340" p-id="9800"></path><path d="M690 166m-26 0a26 26 0 1 0 52 0 26 26 0 1 0-52 0Z" fill="#FF7C5A" p-id="9801"></path><path d="M476 324l106.096-67.196a34.712 34.712 0 0 1 29.828-3.512C635.508 261.728 681.208 279.512 720 304c40.632 25.648 72.224 57.548 86.94 73.656a34.628 34.628 0 0 1 8.552 23.844C814.572 435.144 812 520 812 520l-336-196z" fill="#ABB2E2" p-id="9802"></path><path d="M512 652m-340 0a340 340 0 1 0 680 0 340 340 0 1 0-680 0Z" fill="#F3003D" p-id="9803"></path><path d="M348.648 773.812a53.252 53.252 0 0 1-21.6-57.672c4.076-15.384 2.336-34.064-15.86-58.284-28.484-37.916-8.208-75.504 40.46-149.156 49.944-75.584 140.612-57.316 188.68-40.532a190.08 190.08 0 0 1 59.644 33.972c38.952 32.788 100.912 101.456 61.372 182.968-38.528 79.428-60.516 116.04-107.656 110.876-30.116-3.296-47.068 4.736-58.268 16.044a53.188 53.188 0 0 1-63.548 9.292l23.056-40.476a3.78 3.78 0 0 0-1.412-5.156l-6.576-3.748a3.792 3.792 0 0 0-5.16 1.416l-23.072 40.504c-7.088-4.02-14.48-8.22-21.924-12.456l23.084-40.528a3.788 3.788 0 0 0-1.412-5.16l-6.576-3.744a3.788 3.788 0 0 0-5.16 1.412l-23.088 40.536-21.916-12.476 23.092-40.54a3.788 3.788 0 0 0-1.416-5.16L376.82 732a3.788 3.788 0 0 0-5.16 1.416l-23.012 40.396z m215.268-111.308c-18.948-10.792-43.092-4.172-53.884 14.776-10.792 18.948-4.172 43.092 14.772 53.884 18.948 10.792 43.092 4.172 53.888-14.776 10.792-18.948 4.172-43.092-14.776-53.884z m-143.164-81.548c-18.944-10.792-43.092-4.172-53.884 14.776-10.792 18.948-4.172 43.092 14.776 53.884 18.948 10.792 43.092 4.172 53.884-14.776 10.792-18.944 4.172-43.092-14.776-53.884z m34.24 104.636s-27.88-2.012-36.06 12.352c-8.18 14.364 12.048 17.468 21.912 12.48 0.744 11.032 13.732 26.844 21.912 12.484 8.184-14.364-7.764-37.316-7.764-37.316z" fill="#FFFFFF" p-id="9804"></path><path d="M736.56 396.792C807.324 459.12 852 550.384 852 652c0 187.652-152.348 340-340 340-133.348 0-248.868-76.932-304.56-188.792C267.352 855.976 345.964 888 432 888c187.652 0 340-152.348 340-340 0-54.304-12.76-105.652-35.44-151.208z" fill="#DD003B" p-id="9805"></path><path d="M375.756 420.664c26.144-14.308 55.544-10.988 65.616 7.412 10.068 18.396-2.984 44.952-29.128 59.26s-55.544 10.988-65.616-7.412c-10.068-18.396 2.984-44.952 29.128-59.26z" fill="#FF5D78" p-id="9806"></path></svg>