<?xml version="1.0" standalone="no"?><!DOCTYPE svg PUBLIC "-//W3C//DTD SVG 1.1//EN" "http://www.w3.org/Graphics/SVG/1.1/DTD/svg11.dtd"><svg t="1690961797101" class="icon" viewBox="0 0 1024 1024" version="1.1" xmlns="http://www.w3.org/2000/svg" p-id="9001" xmlns:xlink="http://www.w3.org/1999/xlink" width="200" height="200"><path d="M538.084425 223.580786c-37.263464 0-68.564774 28.320233-71.545851 64.093159v7.452693c0 40.244541 32.791849 73.03639 73.03639 73.03639h93.90393c38.754003 0 70.055313-31.30131 73.03639-70.055313v-2.981077c0-40.244541-32.791849-73.03639-73.03639-73.036391h-95.394469zM427.784571 123.714702c1.490539 0 4.471616 0 5.962154-1.490539l58.131004-44.716157c4.471616-2.981077 5.962154-10.43377 1.490539-14.905386-2.981077-4.471616-10.43377-5.962154-14.905386-1.490538L421.822416 104.3377c-4.471616 2.981077-5.962154 10.43377-1.490538 14.905386 1.490539 2.981077 4.471616 4.471616 7.452693 4.471616zM386.049491 111.790393c5.962154 0 10.43377-4.471616 10.43377-10.43377V32.791849c0-5.962154-4.471616-10.43377-10.43377-10.43377-5.962154 0-10.43377 4.471616-10.43377 10.43377v70.055313c0 4.471616 4.471616 8.943231 10.43377 8.943231zM497.839884 193.770015c38.754003-8.943231 65.583697-5.962154 80.489083 8.943231 1.490539 1.490539 2.981077 2.981077 2.981077 4.471616h22.358078c-2.981077-5.962154-5.962154-11.924309-11.924308-17.886463-19.377001-19.377001-52.16885-23.848617-98.375546-13.414847-43.225619 10.43377-74.526929 7.452693-90.922853-7.452693-14.905386-13.414847-11.924309-35.772926-11.924309-35.772926 1.490539-4.471616-2.981077-10.43377-7.452693-10.43377-4.471616-1.490539-10.43377 2.981077-10.43377 7.452693 0 1.490539-5.962154 31.30131 16.395925 53.659389 22.358079 19.377001 58.131004 22.358079 108.809316 10.43377zM335.371179 117.752547c1.490539 1.490539 4.471616 2.981077 7.452693 2.981077s5.962154-1.490539 7.452693-2.981077c4.471616-4.471616 4.471616-10.43377 0-14.905385l-55.149927-55.149928c-4.471616-4.471616-10.43377-4.471616-14.905386 0-4.471616 4.471616-4.471616 10.43377 0 14.905386l55.149927 55.149927zM256.372635 156.50655l77.508005-4.471616c5.962154 0 10.43377-4.471616 10.43377-10.43377 0-5.962154-4.471616-10.43377-10.43377-10.43377l-77.508005 4.471616c-5.962154 0-10.43377 4.471616-10.43377 10.43377 0 5.962154 4.471616 10.43377 10.43377 10.43377z" fill="#030000" p-id="9002"></path><path d="M712.477438 305.560408c-1.490539 38.754003-41.73508 74.526929-80.489083 74.526928H536.593886c-40.244541 0-80.489083-37.263464-80.489083-77.508006v-7.452692C327.918486 338.352256 242.957787 460.576419 242.957787 605.158661c0 181.845706 147.563319 329.409025 329.409025 329.409025 181.845706 0 329.409025-147.563319 329.409025-329.409025-1.490539-134.148472-74.526929-247.429403-189.298399-299.598253z" fill="#030000" p-id="9003"></path></svg>