<?xml version="1.0" standalone="no"?><!DOCTYPE svg PUBLIC "-//W3C//DTD SVG 1.1//EN" "http://www.w3.org/Graphics/SVG/1.1/DTD/svg11.dtd"><svg t="1690961813189" class="icon" viewBox="0 0 1024 1024" version="1.1" xmlns="http://www.w3.org/2000/svg" p-id="10126" xmlns:xlink="http://www.w3.org/1999/xlink" width="200" height="200"><path d="M651 220.16a30.176 30.176 0 0 0-30.16-30.16h-183.68a30.176 30.176 0 0 0-30.16 30.16v675.68a30.176 30.176 0 0 0 30.16 30.16h183.68a30.176 30.176 0 0 0 30.16-30.16V220.16z" fill="#E7004C" p-id="10127"></path><path d="M387.16 926c-16.644 0-30.16-12.624-30.16-28.172V218.172c0-15.548 13.516-28.172 30.16-28.172h111.68c16.644 0 30.16 12.624 30.16 28.172v679.656c0 15.548-13.516 28.172-30.16 28.172H387.16z" fill="#D0003F" p-id="10128"></path><path d="M407 310h244v96h-244zM407 729.028h244v96h-244z" fill="#2E436C" p-id="10129"></path><path d="M615 74c-67.332 0-122 54.668-122 122s54.668 122 122 122 122-54.668 122-122-54.668-122-122-122z m0 35.748c47.604 0 86.252 38.648 86.252 86.252 0 47.604-38.648 86.252-86.252 86.252-47.604 0-86.252-38.648-86.252-86.252 0-47.604 38.648-86.252 86.252-86.252z" fill="#2D456D" p-id="10130"></path><path d="M682.12 141.852a69.936 69.936 0 0 0 18.712-32.516c-22.048-21.84-52.376-35.336-85.832-35.336-18.476 0-36 4.116-51.7 11.48-0.2 2.148-0.3 4.32-0.3 6.52 0 10.908 2.5 21.24 6.96 30.444a85.84 85.84 0 0 1 45.04-12.696c27.104 0 51.304 12.528 67.12 32.104z" fill="#FFCE71" p-id="10131"></path><path d="M415 74c67.332 0 122 54.668 122 122s-54.668 122-122 122-122-54.668-122-122 54.668-122 122-122z m0 35.748c-47.604 0-86.252 38.648-86.252 86.252 0 47.604 38.648 86.252 86.252 86.252 47.604 0 86.252-38.648 86.252-86.252 0-47.604-38.648-86.252-86.252-86.252z" fill="#FFBA5A" p-id="10132"></path><path d="M347.88 141.852a69.936 69.936 0 0 1-18.712-32.516c22.048-21.84 52.376-35.336 85.832-35.336 18.476 0 36 4.116 51.7 11.48 0.2 2.148 0.3 4.32 0.3 6.52 0 10.908-2.5 21.24-6.96 30.444a85.84 85.84 0 0 0-45.04-12.696c-27.104 0-51.304 12.528-67.12 32.104z" fill="#FFCE71" p-id="10133"></path><path d="M815 220.16a30.176 30.176 0 0 0-30.16-30.16h-183.68a30.176 30.176 0 0 0-30.16 30.16v675.68a30.176 30.176 0 0 0 30.16 30.16h183.68a30.176 30.176 0 0 0 30.16-30.16V220.16z" fill="#E7004C" p-id="10134"></path><path d="M551.16 926c-16.644 0-30.16-12.624-30.16-28.172V218.172c0-15.548 13.516-28.172 30.16-28.172h111.68c16.644 0 30.16 12.624 30.16 28.172v679.656c0 15.548-13.516 28.172-30.16 28.172h-111.68z" fill="#D0003F" p-id="10135"></path><path d="M571 310h244v96h-244zM571 729.028h244v96h-244z" fill="#2E436C" p-id="10136"></path><path d="M209 220.16a30.176 30.176 0 0 1 30.16-30.16h183.68a30.176 30.176 0 0 1 30.16 30.16v675.68a30.176 30.176 0 0 1-30.16 30.16H239.16a30.176 30.176 0 0 1-30.16-30.16V220.16z" fill="#EB004B" p-id="10137"></path><path d="M472.84 926c16.644 0 30.16-12.624 30.16-28.172V218.172c0-15.548-13.516-28.172-30.16-28.172H361.16c-16.644 0-30.16 12.624-30.16 28.172v679.656c0 15.548 13.516 28.172 30.16 28.172h111.68z" fill="#D0003F" p-id="10138"></path><path d="M209 310h244v96h-244zM209 729.028h244v96h-244z" fill="#2E436C" p-id="10139"></path><path d="M639 192.16a30.176 30.176 0 0 0-30.16-30.16h-183.68a30.176 30.176 0 0 0-30.16 30.16v727.68a30.176 30.176 0 0 0 30.16 30.16h183.68a30.176 30.176 0 0 0 30.16-30.16V192.16z" fill="#FB174C" p-id="10140"></path><path d="M425.16 950a30.176 30.176 0 0 1-30.16-30.16V192.16a30.176 30.176 0 0 1 30.16-30.16h111.68a30.176 30.176 0 0 1 30.16 30.16v727.68a30.176 30.176 0 0 1-30.16 30.16h-111.68z" fill="#FF4363" p-id="10141"></path><path d="M395 310h244v96h-244zM395 729.028h244v96h-244z" fill="#2E436C" p-id="10142"></path></svg>